<?xml version="1.0" encoding="UTF-8"?>
<svg xmlns="http://www.w3.org/2000/svg" id="Layer_2" data-name="Layer 2" viewBox="0 0 449.59 106.56">
  <defs>
    <style>
      .cls-1 {
        fill: #00b5b9;
      }

      .cls-2 {
        fill: #333;
      }

      .cls-3 {
        fill: #0779be;
      }
    </style>
  </defs>
  <g id="Layer_1-2" data-name="Layer 1">
    <g>
      <g>
        <path class="cls-2" d="M140.81,40.73v-6.66c0-3.97,1.6-7.46,4.52-9.83,2.81-2.29,6.78-3.49,11.47-3.49h47.32c1.84,0,3.33,1.49,3.33,3.33s-1.49,3.33-3.33,3.33h-47.32c-3.14,0-5.66,.69-7.27,2-1.37,1.11-2.06,2.68-2.06,4.66h54.42c1.84,0,3.33,1.49,3.33,3.33s-1.49,3.33-3.33,3.33h-54.42c0,1.98,.69,3.55,2.06,4.66,1.61,1.31,4.13,2,7.27,2h47.32c1.84,0,3.33,1.49,3.33,3.33s-1.49,3.33-3.33,3.33h-47.32c-4.69,0-8.66-1.21-11.47-3.49-2.92-2.37-4.52-5.86-4.52-9.83Z"></path>
        <path class="cls-2" d="M220.86,50.56c-2.92-2.37-4.52-5.86-4.52-9.83v-6.66c0-3.97,1.6-7.46,4.52-9.83,2.81-2.29,6.78-3.49,11.47-3.49h45.09c1.84,0,3.33,1.49,3.33,3.33s-1.49,3.33-3.33,3.33h-45.09c-3.14,0-5.66,.69-7.27,2-1.37,1.11-2.06,2.68-2.06,4.66v6.66c0,1.98,.69,3.55,2.06,4.66,1.61,1.31,4.12,2,7.27,2h34.65c3.14,0,5.66-.69,7.27-2,1.37-1.11,2.06-2.68,2.06-4.66,0-1.84,1.49-3.33,3.33-3.33s3.33,1.49,3.33,3.33c0,3.97-1.61,7.46-4.52,9.83-2.81,2.29-6.78,3.49-11.47,3.49h-34.65c-4.69,0-8.66-1.21-11.47-3.49h0Z"></path>
        <path class="cls-2" d="M291.87,50.72V24.07c0-1.84,1.49-3.33,3.33-3.33h51.54c3.39,0,6.27,.89,8.35,2.58,2.21,1.79,3.42,4.43,3.42,7.42s-1.22,5.62-3.42,7.42c-.84,.68-1.81,1.23-2.89,1.64l5.79,9.15c.98,1.56,.52,3.61-1.03,4.6-.55,.35-1.17,.52-1.78,.52-1.1,0-2.18-.55-2.82-1.55l-7.46-11.78h-46.37v10c0,1.84-1.49,3.33-3.33,3.33s-3.33-1.49-3.33-3.33Zm6.66-16.66h48.2c1.81,0,3.28-.39,4.15-1.09,.41-.34,.96-.93,.96-2.25s-.55-1.91-.96-2.25c-.86-.7-2.33-1.09-4.15-1.09h-48.2v6.67Z"></path>
        <path class="cls-2" d="M370.73,54.05c-1.84,0-3.33-1.49-3.33-3.33V24.07c0-1.84,1.49-3.33,3.33-3.33s3.33,1.49,3.33,3.33v26.66c0,1.84-1.49,3.33-3.33,3.33Z"></path>
        <path class="cls-2" d="M382.95,50.72V24.07c0-1.84,1.49-3.33,3.33-3.33h47.31c4.69,0,8.66,1.21,11.47,3.5,2.92,2.37,4.52,5.86,4.52,9.83v6.66c0,3.97-1.61,7.46-4.52,9.83-2.81,2.29-6.78,3.49-11.47,3.49h-47.31c-1.84,0-3.33-1.49-3.33-3.33Zm6.66-3.33h43.98c3.14,0,5.66-.69,7.27-2,1.37-1.11,2.06-2.68,2.06-4.66v-6.66c0-1.98-.69-3.55-2.06-4.66-1.61-1.31-4.12-2-7.27-2h-43.98v19.99Z"></path>
      </g>
      <g>
        <path class="cls-2" d="M153.45,70.05c0,1.46-.87,2.58-2.32,2.94,1.77,.32,2.83,1.6,2.83,3.36,0,2.28-1.88,3.67-4.92,3.67h-6.08v-13.3h5.91c2.83,0,4.58,1.27,4.58,3.32Zm-2.6,.46c0-1.01-.8-1.6-2.11-1.58h-3.23v3.23h3.23c1.31,0,2.11-.61,2.11-1.65Zm.47,5.53c0-1.08-.97-1.75-2.58-1.73h-3.23v3.51h3.23c1.61,.02,2.58-.65,2.58-1.79Z"></path>
        <path class="cls-2" d="M164.57,80.02l-2.3-3.93c-.15,.02-.3,.02-.48,.02h-3v3.91h-2.55v-13.3h5.55c3.44,0,5.4,1.65,5.4,4.58,0,2.09-.93,3.59-2.64,4.31l2.93,4.41h-2.91Zm-5.77-6.16h3c1.9,0,2.96-.82,2.96-2.49s-1.06-2.43-2.96-2.43h-3v4.92Z"></path>
        <path class="cls-2" d="M172.34,66.72v13.3h-2.55v-13.3h2.55Z"></path>
        <path class="cls-2" d="M177.83,66.72l6.86,9.1v-9.1h2.47v13.3h-2.41l-6.84-9.08v9.08h-2.49v-13.3h2.41Z"></path>
        <path class="cls-2" d="M199.26,73.41h2.22v5c-1.37,1.03-3.42,1.73-5.26,1.73-3.97,0-7.03-2.95-7.03-6.76s3.12-6.72,7.18-6.72c1.92,0,3.88,.74,5.21,1.9l-1.44,1.86c-1.01-.93-2.41-1.5-3.76-1.5-2.56,0-4.58,1.96-4.58,4.46s2.03,4.48,4.6,4.48c.91,0,1.96-.32,2.87-.84v-3.61Z"></path>
        <path class="cls-2" d="M206.79,66.72v13.3h-2.55v-13.3h2.55Z"></path>
        <path class="cls-2" d="M212.28,66.72l6.86,9.1v-9.1h2.47v13.3h-2.41l-6.84-9.08v9.08h-2.49v-13.3h2.41Z"></path>
        <path class="cls-2" d="M233.71,73.41h2.22v5c-1.37,1.03-3.42,1.73-5.26,1.73-3.97,0-7.03-2.95-7.03-6.76s3.12-6.72,7.18-6.72c1.92,0,3.88,.74,5.21,1.9l-1.44,1.86c-1.01-.93-2.41-1.5-3.76-1.5-2.56,0-4.58,1.96-4.58,4.46s2.03,4.48,4.6,4.48c.91,0,1.96-.32,2.87-.84v-3.61Z"></path>
        <path class="cls-2" d="M254.68,70.05c0,1.46-.87,2.58-2.32,2.94,1.77,.32,2.83,1.6,2.83,3.36,0,2.28-1.88,3.67-4.92,3.67h-6.08v-13.3h5.91c2.83,0,4.58,1.27,4.58,3.32Zm-2.6,.46c0-1.01-.8-1.6-2.11-1.58h-3.23v3.23h3.23c1.31,0,2.11-.61,2.11-1.65Zm.47,5.53c0-1.08-.97-1.75-2.58-1.73h-3.23v3.51h3.23c1.61,.02,2.58-.65,2.58-1.79Z"></path>
        <path class="cls-2" d="M263.12,77.86c2.01,0,3.29-1.25,3.29-3.38v-7.75h2.55v7.75c0,3.5-2.22,5.66-5.83,5.66s-5.91-2.17-5.91-5.66v-7.75h2.54v7.75c0,2.11,1.35,3.38,3.36,3.38Z"></path>
        <path class="cls-2" d="M276.13,68.93c-1.2,0-1.98,.44-1.98,1.25,0,2.7,7.14,1.24,7.12,6,0,2.49-2.17,3.93-5.09,3.93-2.13,0-4.2-.85-5.62-2.13l1.06-2.15c1.37,1.22,3.17,1.96,4.6,1.96s2.28-.53,2.28-1.46c0-2.77-7.14-1.2-7.14-5.93,0-2.32,2-3.8,4.98-3.8,1.77,0,3.53,.57,4.81,1.41l-1.03,2.2c-1.42-.85-2.96-1.29-3.99-1.29Z"></path>
        <path class="cls-2" d="M286.05,66.72v13.3h-2.55v-13.3h2.55Z"></path>
        <path class="cls-2" d="M291.54,66.72l6.86,9.1v-9.1h2.47v13.3h-2.41l-6.84-9.08v9.08h-2.49v-13.3h2.41Z"></path>
        <path class="cls-2" d="M313.7,66.72v2.22h-7.2v3.29h6.46v2.22h-6.46v3.34h7.43v2.22h-9.97v-13.3h9.75Z"></path>
        <path class="cls-2" d="M320.69,68.93c-1.2,0-1.98,.44-1.98,1.25,0,2.7,7.14,1.24,7.12,6,0,2.49-2.17,3.93-5.09,3.93-2.13,0-4.2-.85-5.62-2.13l1.06-2.15c1.37,1.22,3.17,1.96,4.6,1.96s2.28-.53,2.28-1.46c0-2.77-7.14-1.2-7.14-5.93,0-2.32,2-3.8,4.98-3.8,1.77,0,3.53,.57,4.81,1.41l-1.03,2.2c-1.42-.85-2.96-1.29-3.99-1.29Z"></path>
        <path class="cls-2" d="M332.43,68.93c-1.2,0-1.98,.44-1.98,1.25,0,2.7,7.14,1.24,7.12,6,0,2.49-2.17,3.93-5.09,3.93-2.13,0-4.2-.85-5.62-2.13l1.06-2.15c1.37,1.22,3.17,1.96,4.6,1.96s2.28-.53,2.28-1.46c0-2.77-7.14-1.2-7.14-5.93,0-2.32,2-3.8,4.98-3.8,1.77,0,3.53,.57,4.81,1.41l-1.03,2.2c-1.42-.85-2.96-1.29-3.99-1.29Z"></path>
        <path class="cls-2" d="M354.68,66.72v2.26h-4.14v11.04h-2.57v-11.04h-4.14v-2.26h10.85Z"></path>
        <path class="cls-2" d="M368.66,73.37c0,3.82-3.08,6.76-7.09,6.76s-7.09-2.95-7.09-6.76,3.08-6.72,7.09-6.72,7.09,2.91,7.09,6.72Zm-11.57,0c0,2.51,2.07,4.48,4.52,4.48s4.45-1.98,4.45-4.48-2.01-4.45-4.45-4.45-4.52,1.94-4.52,4.45Z"></path>
        <path class="cls-2" d="M379.28,73.41h2.22v5c-1.37,1.03-3.42,1.73-5.26,1.73-3.97,0-7.03-2.95-7.03-6.76s3.12-6.72,7.18-6.72c1.92,0,3.88,.74,5.21,1.9l-1.44,1.86c-1.01-.93-2.41-1.5-3.76-1.5-2.56,0-4.58,1.96-4.58,4.46s2.03,4.48,4.6,4.48c.91,0,1.96-.32,2.87-.84v-3.61Z"></path>
        <path class="cls-2" d="M394.01,66.72v2.22h-7.2v3.29h6.46v2.22h-6.46v3.34h7.43v2.22h-9.97v-13.3h9.75Z"></path>
        <path class="cls-2" d="M406,66.72v2.26h-4.14v11.04h-2.57v-11.04h-4.14v-2.26h10.85Z"></path>
        <path class="cls-2" d="M410.16,66.72v5.68h6.63v-5.68h2.55v13.3h-2.55v-5.4h-6.63v5.4h-2.55v-13.3h2.55Z"></path>
        <path class="cls-2" d="M432.18,66.72v2.22h-7.2v3.29h6.46v2.22h-6.46v3.34h7.43v2.22h-9.97v-13.3h9.75Z"></path>
        <path class="cls-2" d="M443.12,80.02l-2.3-3.93c-.15,.02-.3,.02-.48,.02h-3v3.91h-2.55v-13.3h5.55c3.44,0,5.4,1.65,5.4,4.58,0,2.09-.93,3.59-2.64,4.31l2.93,4.41h-2.91Zm-5.77-6.16h3c1.9,0,2.96-.82,2.96-2.49s-1.06-2.43-2.96-2.43h-3v4.92Z"></path>
      </g>
      <g>
        <path class="cls-1" d="M75.37,7.87c-1.58,1.58-2.03,3.86-1.38,5.84l-14.87,14.87-17.35,3.47L69.24,4.59c.69-.69,.92-1.72,.6-2.64-.33-.92-1.15-1.57-2.12-1.67-14.31-1.48-28.36,2.81-39.31,11.85-2.05-.79-4.46-.36-6.11,1.29-2.23,2.23-2.23,5.86,0,8.09,2.23,2.23,5.86,2.23,8.09,0,1.53-1.53,2.01-3.71,1.44-5.65,8.44-6.88,18.9-10.68,29.79-10.8L18.73,47.94c-1.99-.65-4.26-.2-5.84,1.38-2.23,2.23-2.23,5.86,0,8.09s5.86,2.23,8.09,0c1.6-1.6,2.04-3.91,1.35-5.92l12.99-12.99,25.54-5.11c.49-.1,.94-.34,1.29-.69l15.39-15.39c2,.69,4.32,.24,5.91-1.36,2.23-2.23,2.23-5.86,0-8.09-2.23-2.23-5.86-2.23-8.09,0Z"></path>
        <path class="cls-1" d="M89.39,16.58c-1.54,1.54-2.01,3.74-1.43,5.69l-19.29,19.29-24.78,5.57c-.47,.11-.9,.34-1.23,.68L7.52,82.93c-1.99-.66-4.27-.2-5.85,1.38-2.23,2.23-2.23,5.86,0,8.09,2.23,2.23,5.86,2.23,8.09,0,1.6-1.6,2.04-3.91,1.36-5.91L45.71,51.9l24.78-5.57c.47-.11,.9-.34,1.24-.68l19.69-19.69c2.04,.77,4.43,.34,6.07-1.3,2.23-2.23,2.23-5.86,0-8.09s-5.86-2.23-8.09,0Z"></path>
      </g>
      <g>
        <path class="cls-3" d="M102.99,49.14c-1.6,1.6-2.04,3.91-1.35,5.92l-12.96,12.96-25.57,5.14c-.49,.1-.94,.34-1.29,.69l-15.39,15.39c-2-.69-4.32-.24-5.91,1.35-2.23,2.23-2.23,5.86,0,8.09,2.23,2.23,5.86,2.23,8.09,0,1.58-1.58,2.03-3.86,1.38-5.84l14.87-14.87,17.36-3.48-27.47,27.47c-.69,.69-.92,1.72-.6,2.64,.33,.92,1.15,1.57,2.13,1.67,14.31,1.48,28.36-2.81,39.31-11.85,2.05,.79,4.46,.37,6.11-1.28,2.23-2.23,2.23-5.86,0-8.09s-5.86-2.23-8.09,0c-1.53,1.53-2.01,3.71-1.44,5.65-8.44,6.88-18.9,10.67-29.78,10.8l42.88-42.88c1.99,.65,4.26,.2,5.84-1.38,2.23-2.23,2.23-5.86,0-8.09s-5.86-2.23-8.09,0Z"></path>
        <path class="cls-3" d="M114.21,14.15c-1.6,1.6-2.04,3.91-1.36,5.91l-35.17,35.17-24.03,4.86c-.49,.1-.94,.34-1.29,.69l-19.8,19.8c-2.04-.77-4.43-.34-6.07,1.3-2.23,2.23-2.23,5.86,0,8.09,2.23,2.23,5.86,2.23,8.09,0,1.54-1.54,2.01-3.74,1.43-5.69l19.39-19.39,24.03-4.86c.49-.1,.94-.34,1.29-.69L116.45,23.62c1.99,.66,4.27,.2,5.85-1.38,2.23-2.23,2.23-5.86,0-8.09-2.23-2.23-5.86-2.23-8.09,0Z"></path>
      </g>
    </g>
  </g>
</svg>
